<svg width="34" height="34" viewBox="0 0 34 34" fill="none" xmlns="http://www.w3.org/2000/svg">
<g id="team-svgrepo-com 1" clip-path="url(#clip0_1518_510)">
<g id="Group">
<path id="Vector" d="M5.4037 6.73318C7.25547 6.73318 8.75662 5.23203 8.75662 3.38026C8.75662 1.5285 7.25547 0.0273438 5.4037 0.0273438C3.55193 0.0273438 2.05078 1.5285 2.05078 3.38026C2.05078 5.23203 3.55193 6.73318 5.4037 6.73318Z" fill="white"/>
<path id="Vector_2" d="M1.66261 18.4823H1.99513V25.1327C1.99513 26.0474 2.7433 26.7953 3.65773 26.7953H7.1492C8.06363 26.7953 8.81181 26.0474 8.81181 25.1327V24.7451C8.507 24.1629 8.31303 23.4981 8.31303 22.8054V14.1044C8.31303 12.4141 9.3383 10.9454 10.8069 10.3081V9.64307C10.8069 8.72864 10.0588 7.98047 9.14433 7.98047H1.66261C0.748172 7.98047 0 8.72864 0 9.64307V16.82C0 17.7344 0.720462 18.4823 1.66261 18.4823Z" fill="white"/>
<path id="Vector_3" d="M28.6244 6.73318C30.4762 6.73318 31.9773 5.23203 31.9773 3.38026C31.9773 1.5285 30.4762 0.0273438 28.6244 0.0273438C26.7726 0.0273438 25.2715 1.5285 25.2715 3.38026C25.2715 5.23203 26.7726 6.73318 28.6244 6.73318Z" fill="white"/>
<path id="Vector_4" d="M23.1934 9.61573V10.2808C24.6623 10.9181 25.6873 12.3867 25.6873 14.0771V22.7503C25.6873 23.4431 25.521 24.1081 25.1888 24.69V25.078C25.1888 25.9924 25.9367 26.7406 26.8514 26.7406H30.3428C31.2573 26.7406 32.0054 25.9924 32.0054 25.078V18.4275H32.3377C33.2524 18.4275 34.0003 17.6794 34.0003 16.7649V9.61573C34.0003 8.7013 33.2524 7.95312 32.3377 7.95312H24.856C23.9418 7.95312 23.1934 8.70102 23.1934 9.61573Z" fill="white"/>
<path id="Vector_5" d="M10.835 14.1037V16.8193V22.8047C10.835 23.7191 11.5831 24.4673 12.4976 24.4673H13.1349V32.3093C13.1349 33.2237 13.8831 33.9719 14.7975 33.9719H19.2588C20.1733 33.9719 20.9214 33.2237 20.9214 32.3093V24.4396H21.5588C22.4732 24.4396 23.2214 23.6917 23.2214 22.777V16.8196V14.104C23.2214 13.1896 22.4732 12.4414 21.5588 12.4414H12.4976C11.5554 12.4411 10.835 13.1896 10.835 14.1037Z" fill="white"/>
<path id="Vector_6" d="M17.0138 11.0569C19.141 11.0569 20.8655 9.33245 20.8655 7.20522C20.8655 5.07798 19.141 3.35352 17.0138 3.35352C14.8866 3.35352 13.1621 5.07798 13.1621 7.20522C13.1621 9.33245 14.8866 11.0569 17.0138 11.0569Z" fill="white"/>
</g>
</g>
<defs>
<clipPath id="clip0_1518_510">
<rect width="34" height="34" fill="white"/>
</clipPath>
</defs>
</svg>
